<?xml version="1.0" encoding="UTF-8"?>
<!DOCTYPE svg PUBLIC "-//W3C//DTD SVG 1.1//EN" "http://www.w3.org/Graphics/SVG/1.1/DTD/svg11.dtd">
<svg xmlns="http://www.w3.org/2000/svg" version="1.1" width="152px" height="152px" style="shape-rendering:geometricPrecision; text-rendering:geometricPrecision; image-rendering:optimizeQuality; fill-rule:evenodd; clip-rule:evenodd" xmlns:xlink="http://www.w3.org/1999/xlink">
<g><path style="opacity:0.833" fill="#77340d" d="M 90.5,29.5 C 88.1667,29.5 85.8333,29.5 83.5,29.5C 83.1936,32.3854 83.5269,35.0521 84.5,37.5C 84.5,39.1667 84.5,40.8333 84.5,42.5C 81.5,42.5 78.5,42.5 75.5,42.5C 75.1667,42.5 74.8333,42.5 74.5,42.5C 74.5,37.8333 74.5,33.1667 74.5,28.5C 77.5,28.5 80.5,28.5 83.5,28.5C 83.5,27.1667 83.5,25.8333 83.5,24.5C 85.8333,24.5 88.1667,24.5 90.5,24.5C 90.5,26.1667 90.5,27.8333 90.5,29.5 Z"/></g>
<g><path style="opacity:0.796" fill="#431d06" d="M 90.5,29.5 C 90.5,32.1667 90.5,34.8333 90.5,37.5C 88.5,37.5 86.5,37.5 84.5,37.5C 83.5269,35.0521 83.1936,32.3854 83.5,29.5C 85.8333,29.5 88.1667,29.5 90.5,29.5 Z"/></g>
<g><path style="opacity:0.919" fill="#b2121e" d="M 67.5,42.5 C 69.8333,42.5 72.1667,42.5 74.5,42.5C 74.8333,42.5 75.1667,42.5 75.5,42.5C 75.5,42.8333 75.5,43.1667 75.5,43.5C 75.5,45.8333 75.5,48.1667 75.5,50.5C 72.8333,50.5 70.1667,50.5 67.5,50.5C 67.5,47.8333 67.5,45.1667 67.5,42.5 Z"/></g>
<g><path style="opacity:0.832" fill="#451f07" d="M 75.5,43.5 C 75.5,43.1667 75.5,42.8333 75.5,42.5C 78.5,42.5 81.5,42.5 84.5,42.5C 86.5,42.5 88.5,42.5 90.5,42.5C 90.5,45.1667 90.5,47.8333 90.5,50.5C 90.1667,50.5 89.8333,50.5 89.5,50.5C 87.5,50.5 85.5,50.5 83.5,50.5C 83.5,48.1667 83.5,45.8333 83.5,43.5C 80.8333,43.5 78.1667,43.5 75.5,43.5 Z"/></g>
<g><path style="opacity:1" fill="#2d1403" d="M 75.5,43.5 C 78.1667,43.5 80.8333,43.5 83.5,43.5C 83.5,45.8333 83.5,48.1667 83.5,50.5C 80.8333,50.5 78.1667,50.5 75.5,50.5C 75.5,48.1667 75.5,45.8333 75.5,43.5 Z"/></g>
<g><path style="opacity:0.926" fill="#7e0d14" d="M 89.5,50.5 C 89.8333,50.5 90.1667,50.5 90.5,50.5C 95.1667,50.5 99.8333,50.5 104.5,50.5C 104.5,52.8333 104.5,55.1667 104.5,57.5C 107.167,57.5 109.833,57.5 112.5,57.5C 112.5,62.1667 112.5,66.8333 112.5,71.5C 114.5,71.5 116.5,71.5 118.5,71.5C 118.5,73.5 118.5,75.5 118.5,77.5C 116.5,77.5 114.5,77.5 112.5,77.5C 112.5,84.8333 112.5,92.1667 112.5,99.5C 109.833,99.5 107.167,99.5 104.5,99.5C 104.5,103.833 104.5,108.167 104.5,112.5C 104.167,112.5 103.833,112.5 103.5,112.5C 103.5,107.833 103.5,103.167 103.5,98.5C 106.167,98.5 108.833,98.5 111.5,98.5C 111.5,89.8333 111.5,81.1667 111.5,72.5C 108.833,72.5 106.167,72.5 103.5,72.5C 103.5,67.8333 103.5,63.1667 103.5,58.5C 98.8333,58.5 94.1667,58.5 89.5,58.5C 89.5,55.8333 89.5,53.1667 89.5,50.5 Z"/></g>
<g><path style="opacity:1" fill="#542409" d="M 67.5,50.5 C 70.1667,50.5 72.8333,50.5 75.5,50.5C 78.1667,50.5 80.8333,50.5 83.5,50.5C 83.5,53.1667 83.5,55.8333 83.5,58.5C 80.8333,58.5 78.1667,58.5 75.5,58.5C 72.8333,58.5 70.1667,58.5 67.5,58.5C 67.5,55.8333 67.5,53.1667 67.5,50.5 Z"/></g>
<g><path style="opacity:1" fill="#b4131d" d="M 83.5,50.5 C 85.5,50.5 87.5,50.5 89.5,50.5C 89.5,53.1667 89.5,55.8333 89.5,58.5C 87.5,58.5 85.5,58.5 83.5,58.5C 83.5,55.8333 83.5,53.1667 83.5,50.5 Z"/></g>
<g><path style="opacity:0.862" fill="#d51824" d="M 67.5,42.5 C 67.5,45.1667 67.5,47.8333 67.5,50.5C 67.5,53.1667 67.5,55.8333 67.5,58.5C 66.5269,56.0521 66.1936,53.3854 66.5,50.5C 64.8333,50.5 63.1667,50.5 61.5,50.5C 61.5,53.1667 61.5,55.8333 61.5,58.5C 56.8333,58.5 52.1667,58.5 47.5,58.5C 47.5,62.8333 47.5,67.1667 47.5,71.5C 49.1667,71.5 50.8333,71.5 52.5,71.5C 52.1984,68.9407 52.5318,66.6074 53.5,64.5C 53.5,66.8333 53.5,69.1667 53.5,71.5C 51.7354,72.4614 49.7354,72.7947 47.5,72.5C 47.1667,72.5 46.8333,72.5 46.5,72.5C 44.1667,72.5 41.8333,72.5 39.5,72.5C 39.5,81.1667 39.5,89.8333 39.5,98.5C 38.5318,96.3926 38.1984,94.0593 38.5,91.5C 36.5,91.5 34.5,91.5 32.5,91.5C 32.5,84.8333 32.5,78.1667 32.5,71.5C 34.5,71.5 36.5,71.5 38.5,71.5C 38.5,66.8333 38.5,62.1667 38.5,57.5C 41.1667,57.5 43.8333,57.5 46.5,57.5C 46.5,55.1667 46.5,52.8333 46.5,50.5C 51.1667,50.5 55.8333,50.5 60.5,50.5C 60.5,47.8333 60.5,45.1667 60.5,42.5C 62.8333,42.5 65.1667,42.5 67.5,42.5 Z"/></g>
<g><path style="opacity:1" fill="#fb1b2a" d="M 67.5,58.5 C 70.1667,58.5 72.8333,58.5 75.5,58.5C 75.5,60.5 75.5,62.5 75.5,64.5C 72.8333,64.5 70.1667,64.5 67.5,64.5C 65.5,64.5 63.5,64.5 61.5,64.5C 58.8333,64.5 56.1667,64.5 53.5,64.5C 52.5318,66.6074 52.1984,68.9407 52.5,71.5C 50.8333,71.5 49.1667,71.5 47.5,71.5C 47.5,67.1667 47.5,62.8333 47.5,58.5C 52.1667,58.5 56.8333,58.5 61.5,58.5C 61.5,55.8333 61.5,53.1667 61.5,50.5C 63.1667,50.5 64.8333,50.5 66.5,50.5C 66.1936,53.3854 66.5269,56.0521 67.5,58.5 Z"/></g>
<g><path style="opacity:1" fill="#b4121e" d="M 75.5,58.5 C 78.1667,58.5 80.8333,58.5 83.5,58.5C 83.5,60.5 83.5,62.5 83.5,64.5C 80.8333,64.5 78.1667,64.5 75.5,64.5C 75.5,62.5 75.5,60.5 75.5,58.5 Z"/></g>
<g><path style="opacity:1" fill="#fe1b2a" d="M 83.5,58.5 C 85.5,58.5 87.5,58.5 89.5,58.5C 89.5,60.5 89.5,62.5 89.5,64.5C 92.1667,64.5 94.8333,64.5 97.5,64.5C 97.5,66.8333 97.5,69.1667 97.5,71.5C 97.5,73.5 97.5,75.5 97.5,77.5C 94.8333,77.5 92.1667,77.5 89.5,77.5C 89.5,84.5 89.5,91.5 89.5,98.5C 82.1667,98.5 74.8333,98.5 67.5,98.5C 67.5,100.5 67.5,102.5 67.5,104.5C 62.8333,104.5 58.1667,104.5 53.5,104.5C 53.5,102.5 53.5,100.5 53.5,98.5C 51.5,98.5 49.5,98.5 47.5,98.5C 44.8333,98.5 42.1667,98.5 39.5,98.5C 39.5,89.8333 39.5,81.1667 39.5,72.5C 41.8333,72.5 44.1667,72.5 46.5,72.5C 46.5,76.8333 46.5,81.1667 46.5,85.5C 51.6946,85.8205 56.6946,85.4872 61.5,84.5C 61.5,82.1667 61.5,79.8333 61.5,77.5C 63.5,77.5 65.5,77.5 67.5,77.5C 67.5,75.8333 67.5,74.1667 67.5,72.5C 67.5,72.1667 67.5,71.8333 67.5,71.5C 70.1667,71.5 72.8333,71.5 75.5,71.5C 75.5,69.1667 75.5,66.8333 75.5,64.5C 78.1667,64.5 80.8333,64.5 83.5,64.5C 83.5,62.5 83.5,60.5 83.5,58.5 Z"/></g>
<g><path style="opacity:1" fill="#b6131e" d="M 89.5,58.5 C 94.1667,58.5 98.8333,58.5 103.5,58.5C 103.5,63.1667 103.5,67.8333 103.5,72.5C 101.379,72.6747 99.3792,72.3414 97.5,71.5C 97.5,69.1667 97.5,66.8333 97.5,64.5C 94.8333,64.5 92.1667,64.5 89.5,64.5C 89.5,62.5 89.5,60.5 89.5,58.5 Z"/></g>
<g><path style="opacity:1" fill="#ffadb1" d="M 53.5,64.5 C 56.1667,64.5 58.8333,64.5 61.5,64.5C 61.5,66.8333 61.5,69.1667 61.5,71.5C 58.8333,71.5 56.1667,71.5 53.5,71.5C 53.5,69.1667 53.5,66.8333 53.5,64.5 Z"/></g>
<g><path style="opacity:1" fill="#ff606b" d="M 67.5,64.5 C 70.1667,64.5 72.8333,64.5 75.5,64.5C 75.5,66.8333 75.5,69.1667 75.5,71.5C 72.8333,71.5 70.1667,71.5 67.5,71.5C 67.5,69.1667 67.5,66.8333 67.5,64.5 Z"/></g>
<g><path style="opacity:1" fill="#ff989f" d="M 61.5,64.5 C 63.5,64.5 65.5,64.5 67.5,64.5C 67.5,66.8333 67.5,69.1667 67.5,71.5C 67.5,71.8333 67.5,72.1667 67.5,72.5C 65.5,72.5 63.5,72.5 61.5,72.5C 61.5,74.1667 61.5,75.8333 61.5,77.5C 61.5,79.8333 61.5,82.1667 61.5,84.5C 58.8333,84.5 56.1667,84.5 53.5,84.5C 53.5,82.1667 53.5,79.8333 53.5,77.5C 51.5,77.5 49.5,77.5 47.5,77.5C 47.5,75.8333 47.5,74.1667 47.5,72.5C 49.7354,72.7947 51.7354,72.4614 53.5,71.5C 56.1667,71.5 58.8333,71.5 61.5,71.5C 61.5,69.1667 61.5,66.8333 61.5,64.5 Z"/></g>
<g><path style="opacity:1" fill="#ff5b66" d="M 67.5,72.5 C 67.5,74.1667 67.5,75.8333 67.5,77.5C 65.5,77.5 63.5,77.5 61.5,77.5C 61.5,75.8333 61.5,74.1667 61.5,72.5C 63.5,72.5 65.5,72.5 67.5,72.5 Z"/></g>
<g><path style="opacity:1" fill="#e71826" d="M 97.5,71.5 C 99.3792,72.3414 101.379,72.6747 103.5,72.5C 103.5,78.8333 103.5,85.1667 103.5,91.5C 101.5,91.5 99.5,91.5 97.5,91.5C 97.5,93.8333 97.5,96.1667 97.5,98.5C 94.8333,98.5 92.1667,98.5 89.5,98.5C 89.5,91.5 89.5,84.5 89.5,77.5C 92.1667,77.5 94.8333,77.5 97.5,77.5C 97.5,75.5 97.5,73.5 97.5,71.5 Z"/></g>
<g><path style="opacity:1" fill="#fe545d" d="M 46.5,72.5 C 46.8333,72.5 47.1667,72.5 47.5,72.5C 47.5,74.1667 47.5,75.8333 47.5,77.5C 49.5,77.5 51.5,77.5 53.5,77.5C 53.5,79.8333 53.5,82.1667 53.5,84.5C 56.1667,84.5 58.8333,84.5 61.5,84.5C 56.6946,85.4872 51.6946,85.8205 46.5,85.5C 46.5,81.1667 46.5,76.8333 46.5,72.5 Z"/></g>
<g><path style="opacity:0.916" fill="#51080d" d="M 118.5,77.5 C 118.5,84.8333 118.5,92.1667 118.5,99.5C 116.5,99.5 114.5,99.5 112.5,99.5C 112.5,92.1667 112.5,84.8333 112.5,77.5C 114.5,77.5 116.5,77.5 118.5,77.5 Z"/></g>
<g><path style="opacity:1" fill="#bb131f" d="M 103.5,72.5 C 106.167,72.5 108.833,72.5 111.5,72.5C 111.5,81.1667 111.5,89.8333 111.5,98.5C 108.833,98.5 106.167,98.5 103.5,98.5C 103.5,103.167 103.5,107.833 103.5,112.5C 101.5,112.5 99.5,112.5 97.5,112.5C 97.5,114.5 97.5,116.5 97.5,118.5C 92.8333,118.5 88.1667,118.5 83.5,118.5C 83.5,116.5 83.5,114.5 83.5,112.5C 83.5,109.833 83.5,107.167 83.5,104.5C 85.5,104.5 87.5,104.5 89.5,104.5C 89.5,102.5 89.5,100.5 89.5,98.5C 92.1667,98.5 94.8333,98.5 97.5,98.5C 97.5,96.1667 97.5,93.8333 97.5,91.5C 99.5,91.5 101.5,91.5 103.5,91.5C 103.5,85.1667 103.5,78.8333 103.5,72.5 Z"/></g>
<g><path style="opacity:1" fill="#b3121d" d="M 104.5,73.5 C 106.5,73.5 108.5,73.5 110.5,73.5C 110.5,81.5 110.5,89.5 110.5,97.5C 108.5,97.5 106.5,97.5 104.5,97.5C 104.5,89.5 104.5,81.5 104.5,73.5 Z"/></g>
<g><path style="opacity:0.864" fill="#9c1019" d="M 38.5,99.5 C 41.1667,99.5 43.8333,99.5 46.5,99.5C 46.5,103.833 46.5,108.167 46.5,112.5C 43.9455,113.388 41.2788,113.721 38.5,113.5C 38.5,108.833 38.5,104.167 38.5,99.5 Z"/></g>
<g><path style="opacity:0.854" fill="#51080d" d="M 112.5,99.5 C 112.5,104.167 112.5,108.833 112.5,113.5C 109.721,113.721 107.054,113.388 104.5,112.5C 104.5,108.167 104.5,103.833 104.5,99.5C 107.167,99.5 109.833,99.5 112.5,99.5 Z"/></g>
<g><path style="opacity:1" fill="#e11725" d="M 47.5,98.5 C 49.5,98.5 51.5,98.5 53.5,98.5C 53.5,100.5 53.5,102.5 53.5,104.5C 58.1667,104.5 62.8333,104.5 67.5,104.5C 67.5,102.5 67.5,100.5 67.5,98.5C 74.8333,98.5 82.1667,98.5 89.5,98.5C 89.5,100.5 89.5,102.5 89.5,104.5C 87.5,104.5 85.5,104.5 83.5,104.5C 83.5,107.167 83.5,109.833 83.5,112.5C 78.1667,112.5 72.8333,112.5 67.5,112.5C 65.5,112.5 63.5,112.5 61.5,112.5C 61.5,110.167 61.5,107.833 61.5,105.5C 56.8333,105.5 52.1667,105.5 47.5,105.5C 47.5,103.167 47.5,100.833 47.5,98.5 Z"/></g>
<g><path style="opacity:1" fill="#b3131e" d="M 32.5,91.5 C 34.5,91.5 36.5,91.5 38.5,91.5C 38.1984,94.0593 38.5318,96.3926 39.5,98.5C 42.1667,98.5 44.8333,98.5 47.5,98.5C 47.5,100.833 47.5,103.167 47.5,105.5C 52.1667,105.5 56.8333,105.5 61.5,105.5C 61.5,107.833 61.5,110.167 61.5,112.5C 63.5,112.5 65.5,112.5 67.5,112.5C 67.5,114.5 67.5,116.5 67.5,118.5C 62.8333,118.5 58.1667,118.5 53.5,118.5C 53.5,116.5 53.5,114.5 53.5,112.5C 51.1667,112.5 48.8333,112.5 46.5,112.5C 46.5,108.167 46.5,103.833 46.5,99.5C 43.8333,99.5 41.1667,99.5 38.5,99.5C 36.5,99.5 34.5,99.5 32.5,99.5C 32.5,96.8333 32.5,94.1667 32.5,91.5 Z"/></g>
<g><path style="opacity:0.817" fill="#331704" d="M 67.5,112.5 C 72.8333,112.5 78.1667,112.5 83.5,112.5C 83.5,114.5 83.5,116.5 83.5,118.5C 83.5,118.833 83.5,119.167 83.5,119.5C 78.1667,119.5 72.8333,119.5 67.5,119.5C 67.5,119.167 67.5,118.833 67.5,118.5C 67.5,116.5 67.5,114.5 67.5,112.5 Z"/></g>
<g><path style="opacity:0.893" fill="#54090e" d="M 46.5,112.5 C 48.8333,112.5 51.1667,112.5 53.5,112.5C 53.5,114.5 53.5,116.5 53.5,118.5C 58.1667,118.5 62.8333,118.5 67.5,118.5C 67.5,118.833 67.5,119.167 67.5,119.5C 67.5,121.833 67.5,124.167 67.5,126.5C 62.5,126.5 57.5,126.5 52.5,126.5C 52.6641,123.813 52.4974,121.146 52,118.5C 50.3005,119.406 48.4672,119.739 46.5,119.5C 46.5,117.167 46.5,114.833 46.5,112.5 Z"/></g>
<g><path style="opacity:0.893" fill="#54090e" d="M 103.5,112.5 C 103.833,112.5 104.167,112.5 104.5,112.5C 104.5,114.833 104.5,117.167 104.5,119.5C 102.533,119.739 100.699,119.406 99,118.5C 98.5026,121.146 98.3359,123.813 98.5,126.5C 93.5,126.5 88.5,126.5 83.5,126.5C 83.5,124.167 83.5,121.833 83.5,119.5C 83.5,119.167 83.5,118.833 83.5,118.5C 88.1667,118.5 92.8333,118.5 97.5,118.5C 97.5,116.5 97.5,114.5 97.5,112.5C 99.5,112.5 101.5,112.5 103.5,112.5 Z"/></g>
</svg>
